<svg data-v-fde0c5aa="" xmlns="http://www.w3.org/2000/svg" viewBox="0 0 300 300" class="icon"><!----><defs data-v-fde0c5aa=""><!----></defs><rect data-v-fde0c5aa="" fill="transparent" x="0" y="0" width="300px" height="300px" class="logo-background-square"></rect><!----><defs data-v-fde0c5aa=""><linearGradient data-v-fde0c5aa="" gradientTransform="rotate(25)" id="1b76197e-5f4a-43cb-84f3-61ff0855a288" x1="0%" y1="0%" x2="100%" y2="0%"><stop data-v-fde0c5aa="" offset="0%" stop-color="#181B80" stop-opacity="1"></stop><stop data-v-fde0c5aa="" offset="100%" stop-color="#181ED9" stop-opacity="1"></stop></linearGradient></defs><g data-v-fde0c5aa="" id="d0de49aa-cd00-46be-ba28-2522b112be55" fill="url(#1b76197e-5f4a-43cb-84f3-61ff0855a288)" stroke="none" transform="matrix(4.649960193888097,0,0,4.649960193888097,38.27297707427578,38.16751022848563)"><path d="M25.8.4C13.2 1.7 2.8 7.1 1.4 20.7 0 34.1 8.3 46.3 22.1 47.6c13.1 1.2 22.2-7.9 24.1-20.1 1-5.9 1-12.1-1.8-17.5C41.1 3.5 32.6 2 26.2.9c-.7-.2-1 1-.2 1.1 5.7 1 11.2 2.1 15.6 6.2 4.7 4.3 4.2 11.9 3.6 17.7C44 38 36.1 46 23.6 46.4c-13.3.4-21.5-11.9-21.1-24.2C3.1 8.5 13.4 2.9 25.8 1.6c.8-.1.8-1.3 0-1.2z"></path><path d="M18.7 10.9c2.5-1.8 10.6-5 11.2 1.6.3 3.1-2.1 6.3-3.6 8.8-2.3 3.8-3.4 7.5-2.9 12 .1.8 1.3.8 1.3 0-.6-5.4 1.6-9.4 4.2-13.9 1.3-2.2 3-5.7 2.1-8.4-1.9-5.6-9.1-3.9-12.9-1.2-.7.5-.1 1.6.6 1.1zM23.9 37.7c-.2.4-.2.9-.1 1.3 0 .3.5.5.8.4.4-.1.5-.4.4-.8 0-.2 0-.5.1-.7.3-.6-.9-.9-1.2-.2z"></path></g><!----></svg>